# AST/ASF file generated using VICON BodyLanguage
# -----------------------------------------------
:version 1.10
:name VICON
:units
  mass 1.0
  length 0.45
  angle deg
:documentation
   .ast/.asf automatically generated from VICON data using
   VICON BodyBuilder and BodyLanguage model FoxedUp or BRILLIANT.MOD
:root
   order TX TY TZ RX RY RZ
   axis XYZ
   position 0 0 0  
   orientation 0 0 0 
:bonedata
  begin
     id 1 
     name lhipjoint
     direction 0.822369 -0.411937 0.392449 
     length 3.8167 
     axis 0 0 0  XYZ
  end
  begin
     id 2 
     name lfemur
     direction 0.34202 -0.939693 0  
     length 6.16791  
     axis 0 0 20  XYZ
    dof rx ry rz
    limits (-160.0 20.0)
           (-70.0 70.0)
           (-60.0 70.0)
  end
  begin
     id 3 
     name ltibia
     direction 0.34202 -0.939693 0   
     length 7.07101   
     axis 0 0 20   XYZ
    dof rx
    limits (-10.0 170.0)
  end
  begin
     id 4 
     name lfoot
     direction 0.028254 -0.0776273 0.996582   
     length 1.66799   
     axis -90 7.62852e-016 20   XYZ
    dof rx rz
    limits (-45.0 90.0)
           (-70.0 20.0)
  end
  begin
     id 5 
     name ltoes
     direction 1.53483e-011 -4.21688e-011 1   
     length 0.851674   
     axis -90 7.62852e-016 20   XYZ
    dof rx
    limits (-90.0 20.0)
  end
  begin
     id 6 
     name rhipjoint
     direction -0.822466 -0.411836 0.392353   
     length 3.81764  
     axis 0 0 0  XYZ 
  end
  begin
     id 7 
     name rfemur
     direction -0.34202 -0.939693 0   
     length 6.28636   
     axis 0 0 -20   XYZ
    dof rx ry rz
    limits (-160.0 20.0)
           (-70.0 70.0)
           (-70.0 60.0)
  end
  begin
     id 8 
     name rtibia
     direction -0.34202 -0.939693 0   
     length 6.85621   
     axis 0 0 -20   XYZ
    dof rx
    limits (-10.0 170.0)
 end
 begin
     id 9 
     name rfoot
     direction -0.0553036 -0.151945 0.98684   
     length 1.57293  
     axis -90 -7.62852e-016 -20   XYZ
    dof rx rz
    limits (-45.0 90.0)
           (-20.0 70.0)
  end
  begin
     id 10 
     name rtoes
     direction -1.53592e-011 -4.21964e-011 1   
     length 0.802812   
     axis -90 -7.62852e-016 -20   XYZ
    dof rx
    limits (-90.0 20.0)
  end
  begin
     id 11 
     name lowerback
     direction 0.00654913 0.996475 -0.0836396   
     length 1.97212   
     axis 0 0 0   XYZ
    dof rx ry rz
    limits (-20.0 45.0)
           (-30.0 30.0)
           (-30.0 30.0)
  end
  begin
     id 12 
     name upperback
     direction 0.0111875 0.994527 0.103877   
     length 1.89704   
     axis 0 0 0   XYZ
    dof rx ry rz
    limits (-20.0 45.0)
           (-30.0 30.0)
           (-30.0 30.0)
  end
  begin
     id 13 
     name thorax
     direction 0.00473652 0.989004 0.147814   
     length 1.94516   
     axis 0 0 0   XYZ
    dof rx ry rz
    limits (-20.0 45.0)
           (-30.0 30.0)
           (-30.0 30.0)
  end
  begin
     id 14 
     name lowerneck
     direction -0.00925808 0.999011 0.0434791   
     length 1.81771   
     axis 0 0 0   XYZ
    dof rx ry rz
    limits (-20.0 45.0)
           (-30.0 30.0)
           (-30.0 30.0)
  end
  begin
     id 15 
     name upperneck
     direction 0.00451595 0.964412 -0.264365   
     length 1.80434   
     axis 0 0 0   XYZ
    dof rx ry rz
    limits (-20.0 45.0)
           (-30.0 30.0)
           (-30.0 30.0)
  end
  begin
     id 16
     name head
     direction -0.00110849 0.995756 -0.0920241  
     length 1.84006  
     axis 0 0 0   XYZ
    dof rx ry rz
    limits (-20.0 45.0)
           (-30.0 30.0)
           (-30.0 30.0)
  end
  begin
     id 17 
     name lclavicle
     direction 0.921253 0.385213 0.0538957  
     length 3.67415  
     axis 0 0 0   XYZ
    dof ry rz
    limits (-20.0 10.0)
           (0.0 20.0)
  end
  begin
     id 18 
     name lhumerus
     direction 1 -4.48961e-011 6.73441e-028   
     length 4.32712   
     axis 180 -30 -90   XYZ
    dof rx ry rz
    limits (-60.0 90.0)
           (-90.0 90.0)
           (-90.0 90.0)
  end
  begin
     id 19
     name lradius
     direction 1 -4.48985e-011 -9.53507e-028   
     length 3.28587   
     axis 180 -30 -90   XYZ
    dof rx
    limits (-10.0 170.0)
  end
  begin
     id 20
     name lwrist
     direction 1 -4.48951e-011 -4.67472e-027   
     length 1.64293   
     axis 1.65735e-015 90 90   XYZ
    dof ry
    limits (-180.0 0.0)
 end
  begin
     id 21 
     name lhand
     direction 1 -4.48946e-011 -9.34945e-027   
     length 0.433158   
     axis 5.96574e-015 90 90   XYZ
    dof rx rz
    limits (-90.0 90.0)
           (-45.0 45.0)
  end
  begin
     id 22 
     name lfingers
     direction 1 -4.48882e-011 -1.86989e-026   
     length 0.349224   
     axis 1.19315e-014 90 90   XYZ
    dof rx
    limits (0.0 90.0)
  end
  begin
     id 23
     name lthumb
     direction 0.707107 -6.3493e-011 0.707107   
     length 0.501417   
     axis -90 45 2.85299e-015   XYZ
    dof rx rz
    limits (-45.0 45.0)
           (-45.0 45.0)
  end
  begin
     id 24 
     name rclavicle
     direction -0.884378 0.46502 -0.0403866   
     length 3.50218  
     axis 0 0 0   XYZ 
    dof ry rz
    limits (-10.0 20.0)
           (-20.0 0.0)
  end
  begin
     id 25 
     name rhumerus
     direction -1 -4.48964e-011 1.58188e-027  
     length 4.29104   
     axis 180 30 90   XYZ
    dof rx ry rz
    limits (-90.0 60.0)
           (-90.0 90.0)
           (-90.0 90.0)
  end
  begin
     id 26 
     name rradius
     direction -1 -4.48978e-011 -1.9722e-027   
     length 3.2272   
     axis 180 30 90   XYZ
    dof rx
    limits (-10.0 170.0)
  end
  begin
     id 27 
     name rwrist
     direction -1 -4.48969e-011 -4.67472e-027   
     length 1.6136   
     axis 1.65735e-015 -90 -90   XYZ
    dof ry
    limits (-180.0 0.0)
  end
  begin
     id 28
     name rhand
     direction -1 -4.48846e-011 -9.34945e-027   
     length 0.543623   
     axis 5.96574e-015 -90 -90   XYZ
    dof rx rz
    limits (-90.0 90.0)
           (-45.0 45.0)
  end
  begin
     id 29
     name rfingers
     direction -1 -4.49074e-011 -1.86989e-026   
     length 0.438283   
     axis 1.19315e-014 -90 -90   XYZ
    dof rx
    limits (0.0 90.0)
  end
  begin
     id 30
     name rthumb
     direction -0.707107 -6.34834e-011 0.707107   
     length 0.629289   
     axis -90 -45 -2.85299e-015   XYZ
    dof rx rz
    limits (-45.0 45.0)
           (-45.0 45.0)
  end
:hierarchy
  begin
    root lhipjoint rhipjoint lowerback
    lhipjoint lfemur
    lfemur ltibia
    ltibia lfoot
    lfoot ltoes
    rhipjoint rfemur
    rfemur rtibia
    rtibia rfoot
    rfoot rtoes
    lowerback upperback
    upperback thorax
    thorax lowerneck lclavicle rclavicle
    lowerneck upperneck
    upperneck head
    lclavicle lhumerus
    lhumerus lradius
    lradius lwrist
    lwrist lhand lthumb
    lhand lfingers
    rclavicle rhumerus
    rhumerus rradius
    rradius rwrist
    rwrist rhand rthumb
    rhand rfingers
  end

#!OML:ASF H:\GeneralSubjects\Female5\Project 1\Capture day 1\Session 1\Female5.ASF
:FULLY-SPECIFIED
:DEGREES
56
root -36.2307 16.2803 2.24074 -168.402 1.30905 -175.55
lowerback 6.58216 -1.14144 -3.87007
upperback -10.1067 -0.213455 6.19171
thorax -14.9451 1.29733 9.15401
lowerneck -15.9959 -0.639306 -0.732436
upperneck 28.3405 3.23632 -7.04087
head 12.1241 1.14013 -1.89225
rclavicle -2.24627e-014 7.71285e-014
rhumerus -50.584 31.4368 -89.3941
rradius 31.6951
rwrist -15.2819
rhand -25.2933 -24.7448
rfingers 7.12502
rthumb 1.2283 -54.721
lclavicle -2.24627e-014 7.71285e-014
lhumerus -51.358 4.91146 82.0819
lradius 34.4919
lwrist -0.0590393
lhand -22.1361 26.2654
lfingers 7.12502
lthumb 4.27738 56.2022
rfemur 3.31919 34.9586 35.2873
rtibia -9.41423
rfoot -41.3503 -30.9325
rtoes 25.0622
lfemur -2.82009 -38.9023 -23.4363
ltibia -3.54231
lfoot -36.808 -3.34883
ltoes -11.3064
57
root -36.2287 16.28 2.24132 -168.397 1.31007 -175.532
lowerback 6.57461 -1.13549 -3.9485
upperback -10.0918 -0.214785 6.21603
thorax -14.9235 1.30592 9.22801
lowerneck -16.014 -0.648636 -0.692967
upperneck 28.3385 3.20665 -7.04072
head 12.1258 1.1291 -1.90385
rclavicle -4.07509e-015 -6.59965e-014
rhumerus -50.5588 31.4573 -89.3532
rradius 31.7386
rwrist -15.325
rhand -25.2444 -24.756
rfingers 7.12502
rthumb 1.27549 -54.7319
lclavicle -4.07509e-015 -6.59965e-014
lhumerus -51.3318 4.99662 82.0102
lradius 34.4346
lwrist -0.114579
lhand -21.3098 25.7421
lfingers 7.12502
lthumb 5.0752 55.6614
rfemur 3.21497 34.9652 35.2547
rtibia -9.30038
rfoot -41.4205 -30.7561
rtoes 25.5857
lfemur -2.83011 -38.8614 -23.3802
ltibia -3.54431
lfoot -36.7228 -3.77654
ltoes -11.1515
58
root -36.2259 16.2797 2.24195 -168.393 1.30851 -175.506
lowerback 6.57483 -1.1294 -4.02416
upperback -10.0757 -0.21545 6.24262
thorax -14.9057 1.31482 9.3033
lowerneck -16.0466 -0.660603 -0.64366
upperneck 28.3429 3.17814 -7.06077
head 12.1337 1.11684 -1.92474
rclavicle -1.10325e-014 2.3059e-014
rhumerus -50.5353 31.4708 -89.3112
rradius 31.7852
rwrist -15.3825
rhand -25.2122 -24.7257
rfingers 7.12502
rthumb 1.30664 -54.7015
lclavicle -1.10325e-014 2.3059e-014
lhumerus -51.3201 5.02105 81.9766
lradius 34.4155
lwrist -0.129377
lhand -20.2713 25.2464
lfingers 7.12502
lthumb 6.07786 55.1392
rfemur 3.11944 34.9699 35.2316
rtibia -9.20528
rfoot -41.506 -30.5561
rtoes 26.0777
lfemur -2.82369 -38.9289 -23.3151
ltibia -3.58901
lfoot -36.7293 -4.20256
ltoes -10.9906
59
root -36.2226 16.2796 2.24248 -168.389 1.30457 -175.487
lowerback 6.58033 -1.12315 -4.1049
upperback -10.0588 -0.217995 6.26564
thorax -14.8899 1.32283 9.37804
lowerneck -16.0852 -0.674915 -0.556968
upperneck 28.3439 3.15576 -7.14228
head 12.1434 1.10414 -1.97434
rclavicle 2.80286e-014 -6.20208e-014
rhumerus -50.5206 31.493 -89.2873
rradius 31.8281
rwrist -15.4809
rhand -25.2261 -24.6753
rfingers 7.12502
rthumb 1.29316 -54.6511
lclavicle 2.80286e-014 -6.20208e-014
lhumerus -51.3209 4.98677 81.9801
lradius 34.4315
lwrist -0.099044
lhand -19.2373 24.8519
lfingers 7.12502
lthumb 7.07605 54.7136
rfemur 3.03954 34.9676 35.1962
rtibia -9.14359
rfoot -41.5638 -30.3992
rtoes 26.4191
lfemur -2.79965 -39.1167 -23.2621
ltibia -3.67193
lfoot -36.854 -4.58974
ltoes -10.8232
60
root -36.2188 16.2797 2.2427 -168.388 1.29768 -175.476
lowerback 6.59007 -1.11654 -4.19285
upperback -10.0394 -0.222704 6.28547
thorax -14.8735 1.32978 9.45387
lowerneck -16.1248 -0.687032 -0.479552
upperneck 28.353 3.13857 -7.21497
head 12.1565 1.09412 -2.01831
rclavicle -9.44227e-015 2.14687e-014
rhumerus -50.5114 31.5203 -89.275
rradius 31.8629
rwrist -15.613
rhand -25.2872 -24.6327
rfingers 7.12502
rthumb 1.23418 -54.6088
lclavicle -9.44227e-015 2.14687e-014
lhumerus -51.3274 4.90547 82.0216
lradius 34.4765
lwrist -0.0148639
lhand -18.3495 24.5811
lfingers 7.12502
lthumb 7.93297 54.4123
rfemur 3.00019 34.9603 35.1725
rtibia -9.12688
rfoot -41.5957 -30.2974
rtoes 26.576
lfemur -2.79468 -39.3897 -23.2295
ltibia -3.69374
lfoot -37.0488 -5.10301
ltoes -10.5642
61
root -36.2145 16.2799 2.24242 -168.389 1.28984 -175.479
lowerback 6.59901 -1.10946 -4.29432
upperback -10.0169 -0.230083 6.30337
thorax -14.8523 1.33599 9.53579
lowerneck -16.1657 -0.696013 -0.424803
upperneck 28.3707 3.12842 -7.26739
head 12.1731 1.08757 -2.04974
rclavicle 1.80894e-014 -3.97569e-015
rhumerus -50.5048 31.5603 -89.2688
rradius 31.892
rwrist -15.7627
rhand -25.3673 -24.6166
rfingers 7.12502
rthumb 1.15681 -54.5932
lclavicle 1.80894e-014 -3.97569e-015
lhumerus -51.3254 4.81819 82.0826
lradius 34.5257
lwrist 0.0880075
lhand -17.7295 24.4428
lfingers 7.12502
lthumb 8.53143 54.2504
rfemur 2.99153 34.948 35.1451
rtibia -9.1459
rfoot -41.5769 -30.2725
rtoes 26.5339
lfemur -2.80747 -39.6598 -23.2222
ltibia -3.65059
lfoot -37.2337 -5.67927
ltoes -10.2966
62
root -36.2098 16.2802 2.24163 -168.389 1.28266 -175.494
lowerback 6.60228 -1.10289 -4.40486
upperback -9.99126 -0.240439 6.32003
thorax -14.823 1.34077 9.6218
lowerneck -16.2073 -0.701578 -0.395256
upperneck 28.3951 3.12281 -7.29121
head 12.1919 1.08389 -2.06539
rclavicle -1.89839e-014 2.38542e-014
rhumerus -50.4914 31.614 -89.2644
rradius 31.9095
rwrist -15.9104
rhand -25.4275 -24.6425
rfingers 7.12502
rthumb 1.09869 -54.6194
lclavicle -1.89839e-014 2.38542e-014
lhumerus -51.3061 4.75919 82.1412
lradius 34.5593
lwrist 0.178322
lhand -17.4138 24.4188
lfingers 7.12502
lthumb 8.83605 54.2139
rfemur 3.00078 34.9395 35.135
rtibia -9.1587
rfoot -41.5486 -30.2836
rtoes 26.3677
lfemur -2.81642 -39.8555 -23.2352
ltibia -3.59949
lfoot -37.3575 -6.18569
ltoes -10.109
63
root -36.2049 16.2803 2.24048 -168.387 1.2757 -175.513
lowerback 6.59633 -1.10001 -4.50509
upperback -9.96481 -0.255205 6.33241
thorax -14.7856 1.34115 9.69701
lowerneck -16.2471 -0.703993 -0.376469
upperneck 28.423 3.11717 -7.29094
head 12.2111 1.08185 -2.07014
rclavicle -2.25621e-014 4.45278e-014
rhumerus -50.4372 31.6291 -89.2358
rradius 31.8816
rwrist -15.9948
rhand -25.4441 -24.677
rfingers 7.12502
rthumb 1.08265 -54.654
lclavicle -2.25621e-014 4.45278e-014
lhumerus -51.2752 4.73036 82.1837
lradius 34.582
lwrist 0.257086
lhand -17.3188 24.4494
lfingers 7.12502
lthumb 8.92772 54.2406
rfemur 3.01271 34.9317 35.1241
rtibia -9.17784
rfoot -41.4986 -30.3375
rtoes 26.0923
lfemur -2.82057 -39.9365 -23.2537
ltibia -3.56057
lfoot -37.402 -6.53349
ltoes -10.0331
64
root -36.1999 16.2801 2.23909 -168.378 1.26865 -175.532
lowerback 6.58279 -1.10168 -4.57726
upperback -9.9396 -0.273329 6.33652
thorax -14.7433 1.33554 9.74609
lowerneck -16.2857 -0.705452 -0.345301
upperneck 28.4463 3.11185 -7.30247
head 12.2285 1.07971 -2.08144
rclavicle -1.68967e-015 2.38542e-015
rhumerus -50.3031 31.5423 -89.1449
rradius 31.7682
rwrist -15.936
rhand -25.4022 -24.6579
rfingers 7.12502
rthumb 1.12314 -54.6347
lclavicle -1.68967e-015 2.38542e-015
lhumerus -51.2336 4.74168 82.1951
lradius 34.5924
lwrist 0.304128
lhand -17.3989 24.5091
lfingers 7.12502
lthumb 8.85045 54.3035
rfemur 3.01838 34.9294 35.1276
rtibia -9.18224
rfoot -41.4574 -30.3931
rtoes 25.8253
lfemur -2.81387 -39.8747 -23.2665
ltibia -3.57316
lfoot -37.3528 -6.6645
ltoes -10.0568
65
root -36.1948 16.2795 2.23758 -168.365 1.26116 -175.552
lowerback 6.56894 -1.10518 -4.62119
upperback -9.91667 -0.291105 6.33194
thorax -14.7029 1.32614 9.76816
lowerneck -16.3259 -0.712484 -0.311507
upperneck 28.4587 3.10172 -7.33332
head 12.2422 1.07303 -2.10116
rclavicle 2.88238e-015 -2.78299e-014
rhumerus -50.1114 31.3685 -88.9982
rradius 31.591
rwrist -15.7432
rhand -25.3062 -24.5724
rfingers 7.12502
rthumb 1.2158 -54.5487
lclavicle 2.88238e-015 -2.78299e-014
lhumerus -51.1864 4.7953 82.1764
lradius 34.5955
lwrist 0.300211
lhand -17.789 24.6647
lfingers 7.12502
lthumb 8.47397 54.4747
rfemur 3.02403 34.9289 35.1344
rtibia -9.19234
rfoot -41.4282 -30.4542
rtoes 25.5494
lfemur -2.83558 -39.7291 -23.2722
ltibia -3.55738
lfoot -37.2301 -6.71561
ltoes -10.0891
66
root -36.1896 16.2785 2.23576 -168.347 1.25238 -175.591
lowerback 6.55543 -1.10954 -4.65676
upperback -9.89796 -0.310892 6.31478
thorax -14.6669 1.31386 9.77106
lowerneck -16.3634 -0.725618 -0.269245
upperneck 28.4592 3.08824 -7.3943
head 12.2512 1.06215 -2.13412
rclavicle 2.80286e-014 -8.34896e-014
rhumerus -49.9392 31.1941 -88.8628
rradius 31.4214
rwrist -15.5152
rhand -25.189 -24.4337
rfingers 7.12502
rthumb 1.32907 -54.4093
lclavicle 2.80286e-014 -8.34896e-014
lhumerus -51.1471 4.86603 82.1431
lradius 34.6099
lwrist 0.266086
lhand -18.2215 24.809
lfingers 7.12502
lthumb 8.05658 54.6355
rfemur 3.02502 34.9253 35.1214
rtibia -9.20441
rfoot -41.4127 -30.5121
rtoes 25.3197
lfemur -2.90027 -39.5222 -23.2915
ltibia -3.48265
lfoot -37.0024 -6.88407
ltoes -10.0379
67
root -36.1841 16.2771 2.23322 -168.329 1.2412 -175.659
lowerback 6.54058 -1.11371 -4.70405
upperback -9.88266 -0.334711 6.28407
thorax -14.6332 1.29959 9.7658
lowerneck -16.3982 -0.746604 -0.196698
upperneck 28.4544 3.07494 -7.51621
head 12.2592 1.04789 -2.19528
rclavicle -4.87022e-015 3.18055e-014
rhumerus -49.8427 31.0948 -88.7948
rradius 31.3109
rwrist -15.3532
rhand -25.0891 -24.2692
rfingers 7.12502
rthumb 1.42551 -54.2442
lclavicle -4.87022e-015 3.18055e-014
lhumerus -51.1149 4.94452 82.104
lradius 34.6338
lwrist 0.212811
lhand -18.6374 24.931
lfingers 7.12502
lthumb 7.65514 54.7725
rfemur 3.0311 34.913 35.077
rtibia -9.22268
rfoot -41.4107 -30.5513
rtoes 25.285
lfemur -3.00175 -39.3208 -23.3468
ltibia -3.33453
lfoot -36.7054 -7.31142
ltoes -9.86849
